<svg version="1.0" xmlns="http://www.w3.org/2000/svg" width="320" height="320" viewBox="0 0 240 240"><path d="M110 .6c-1.4.2-5.9.9-10 1.5-16.6 2.4-35.8 10.6-50.6 21.4C24.4 41.8 7.3 69.3 1.9 100c-1.7 9.6-1.7 30.4 0 40 8.9 50.1 48.1 89.3 98.1 98.1 9.6 1.7 30.4 1.7 40 0 50-8.8 89.2-48 98.1-98.1 1.7-9.6 1.7-30.4 0-40-8.7-49.3-46.9-88.2-95.6-97.5C134.4.9 114.6-.2 110 .6zm53.9 80c2.8.8 5.5 2.2 5.8 3 .8 2.2-.6 8-2.6 10.5-1.8 2.2-1.9 2.2-6 .6-6.4-2.6-13.6-2.3-16.6.8-1.4 1.3-2.5 3.4-2.5 4.6 0 2.1 6.2 8.9 8.1 8.9 2 0 13.5 6.2 16.3 8.8 4.2 3.9 6.6 9.8 6.6 16.2 0 10.3-5.9 18.1-16.1 21.5-9.3 3.1-28.3.4-30.8-4.4-1.2-2.4 1.5-10.8 3.8-11.6 1-.3 3.8.4 6.2 1.5 2.8 1.2 6.6 2 10.2 2 5.1 0 6.2-.4 8.8-2.9 5.9-6 2.8-11.3-10-17.2-9.8-4.5-13.5-7.7-16.2-13.4-5.1-10.9.9-24.8 12.4-28.9 5.6-1.9 16.1-2 22.6 0zm-63 1.2c.5.9 6.2 17.2 12.6 36.2 8.2 24.3 11.4 34.9 10.7 36-1.1 1.9-11.7 2.6-13.8 1-.7-.7-2.8-5.6-4.6-11.1l-3.2-9.9H92.5l-10 .1-3.5 10.7-3.5 10.7h-7c-6.2 0-7-.2-7.3-2-.3-2.2 22.2-70.1 24-72.2.7-.8 3.5-1.3 7.9-1.3 5.5 0 7 .3 7.8 1.8zM55.8 96.2c1.6 1.6 1.5 9.4 0 10.8-.7.7-8.9 5.1-18.2 10l-17 8.8 17.5 8.7c9.6 4.8 17.7 9.3 18.1 9.9 1.4 2.1.9 9.3-.8 10.7-1.3 1.1-2.6.7-8.2-2-13.7-6.7-41.4-21.5-42.8-22.8-1.5-1.6-1.9-7-.5-9.1.8-1.4 47.8-26.1 49.7-26.2.5 0 1.5.5 2.2 1.2zM208 107.8l24.5 12.7.3 4.7c.4 5.7 2.7 4.1-28 19.8-25.4 13-25.8 13-25.8 3.9V144l18.5-9.3 18.6-9.2-18.3-9.1-18.3-9.1-.3-4.7c-.3-4.7.9-7.6 3.2-7.6.6 0 12.1 5.8 25.6 12.8z"/><path d="M89.6 111.6c-1.5 4.7-2.6 8.8-2.3 9 .3.3 2.9.4 5.9.2l5.5-.3-3.1-8.7-3.2-8.8-2.8 8.6z"/></svg>