<?xml version="1.0" standalone="no"?>
<!DOCTYPE svg PUBLIC "-//W3C//DTD SVG 20010904//EN"
 "http://www.w3.org/TR/2001/REC-SVG-20010904/DTD/svg10.dtd">
<svg version="1.0" xmlns="http://www.w3.org/2000/svg"
 width="240.000000pt" height="240.000000pt" viewBox="0 0 240.000000 240.000000"
 preserveAspectRatio="xMidYMid meet">
<metadata>
Created by potrace 1.14, written by Peter Selinger 2001-2017
</metadata>
<g transform="translate(0.000000,240.000000) scale(0.100000,-0.100000)"
fill="#000000" stroke="none">
<path d="M1100 2394 c-14 -2 -59 -9 -100 -15 -166 -24 -358 -106 -506 -214
-250 -183 -421 -458 -475 -765 -17 -96 -17 -304 0 -400 89 -501 481 -893 981
-981 96 -17 304 -17 400 0 500 88 892 480 981 981 17 96 17 304 0 400 -87 493
-469 882 -956 975 -81 16 -279 27 -325 19z m539 -800 c28 -8 55 -22 58 -30 8
-22 -6 -80 -26 -105 -18 -22 -19 -22 -60 -6 -64 26 -136 23 -166 -8 -14 -13
-25 -34 -25 -46 0 -21 62 -89 81 -89 20 0 135 -62 163 -88 42 -39 66 -98 66
-162 0 -103 -59 -181 -161 -215 -93 -31 -283 -4 -308 44 -12 24 15 108 38 116
10 3 38 -4 62 -15 28 -12 66 -20 102 -20 51 0 62 4 88 29 59 60 28 113 -100
172 -98 45 -135 77 -162 134 -51 109 9 248 124 289 56 19 161 20 226 0z m-630
-12 c5 -9 62 -172 126 -362 82 -243 114 -349 107 -360 -11 -19 -117 -26 -138
-10 -7 7 -28 56 -46 111 l-32 99 -101 0 -100 -1 -35 -107 -35 -107 -70 0 c-62
0 -70 2 -73 20 -3 22 222 701 240 722 7 8 35 13 79 13 55 0 70 -3 78 -18z
m-451 -144 c16 -16 15 -94 0 -108 -7 -7 -89 -51 -182 -100 l-170 -88 175 -87
c96 -48 177 -93 181 -99 14 -21 9 -93 -8 -107 -13 -11 -26 -7 -82 20 -137 67
-414 215 -428 228 -15 16 -19 70 -5 91 8 14 478 261 497 262 5 0 15 -5 22 -12z
m1522 -116 l245 -127 3 -47 c4 -57 27 -41 -280 -198 -254 -130 -258 -130 -258
-39 l0 49 185 93 186 92 -183 91 -183 91 -3 47 c-3 47 9 76 32 76 6 0 121 -58
256 -128z"/>
<path d="M896 1284 c-15 -47 -26 -88 -23 -90 3 -3 29 -4 59 -2 l55 3 -31 87
-32 88 -28 -86z"/>
</g>
</svg>
